<svg width="24" height="26" viewBox="0 0 24 26" fill="none" xmlns="http://www.w3.org/2000/svg">
<path d="M15 15V17.2L16.6 18.2M15 5H17C17.5304 5 18.0391 5.21071 18.4142 5.58579C18.7893 5.96086 19 6.46957 19 7V7.832M7 5H5C4.46957 5 3.96086 5.21071 3.58579 5.58579C3.21071 5.96086 3 6.46957 3 7V21C3 21.5304 3.21071 22.0391 3.58579 22.4142C3.96086 22.7893 4.46957 23 5 23H7M21 17C21 20.3137 18.3137 23 15 23C11.6863 23 9 20.3137 9 17C9 13.6863 11.6863 11 15 11C18.3137 11 21 13.6863 21 17ZM8 3H14C14.5523 3 15 3.44772 15 4V6C15 6.55228 14.5523 7 14 7H8C7.44772 7 7 6.55228 7 6V4C7 3.44772 7.44772 3 8 3Z" stroke="#D8C6F7" stroke-width="2" stroke-linecap="round" stroke-linejoin="round"/>
</svg>
