<svg width="26" height="27" viewBox="0 0 26 27" fill="none" xmlns="http://www.w3.org/2000/svg">
<path d="M11 3H15M5.6 12C4.99419 13.4562 4.83236 15.059 5.13483 16.607C5.4373 18.1549 6.19058 19.5789 7.3 20.7C8.42107 21.8094 9.84507 22.5627 11.393 22.8652C12.941 23.1676 14.5438 23.0058 16 22.4M8.4 8.4C9.95709 7.31966 11.8472 6.82718 13.7335 7.01032C15.6198 7.19346 17.3798 8.04031 18.7 9.4C20.0189 10.7267 20.8312 12.4736 20.9957 14.3371C21.1601 16.2007 20.6663 18.0629 19.6 19.6M3 3L23 23M13 13V11" stroke="#D8C6F7" stroke-width="2" stroke-linecap="round" stroke-linejoin="round"/>
</svg>
