<svg width="30" height="30" viewBox="0 0 30 30" fill="none" xmlns="http://www.w3.org/2000/svg">
<path d="M22.2 24.6C22.2 22.6904 21.4414 20.8591 20.0912 19.5088C18.7409 18.1586 16.9096 17.4 15 17.4M15 17.4C13.0904 17.4 11.2591 18.1586 9.90883 19.5088C8.55857 20.8591 7.8 22.6904 7.8 24.6M15 17.4C17.651 17.4 19.8 15.251 19.8 12.6C19.8 9.94903 17.651 7.8 15 7.8C12.349 7.8 10.2 9.94903 10.2 12.6C10.2 15.251 12.349 17.4 15 17.4ZM27 15C27 21.6274 21.6274 27 15 27C8.37258 27 3 21.6274 3 15C3 8.37258 8.37258 3 15 3C21.6274 3 27 8.37258 27 15Z" stroke="white" stroke-width="2" stroke-linecap="round" stroke-linejoin="round"/>
</svg>
