<svg width="29" height="30" viewBox="0 0 29 30" fill="none" xmlns="http://www.w3.org/2000/svg">
<path d="M21.4 12.6C21.4 10.0539 20.4307 7.61212 18.7054 5.81178C16.98 4.01143 14.64 3 12.2 3C9.76001 3 7.41995 4.01143 5.69462 5.81178C3.96928 7.61212 3 10.0539 3 12.6C3 18.5916 9.36985 24.8316 11.5089 26.7588C11.7082 26.9148 11.9508 26.9991 12.2 26.9988M21.4 27V23.4M17.95 27C17.645 27 17.3525 26.8736 17.1368 26.6485C16.9212 26.4235 16.8 26.1183 16.8 25.8V21C16.8 20.8025 16.8467 20.608 16.9359 20.4339C17.0252 20.2597 17.1543 20.1112 17.3117 20.0016L20.7617 17.6016C20.9507 17.47 21.1728 17.3998 21.4 17.3998C21.6272 17.3998 21.8493 17.47 22.0382 17.6016L25.4882 20.0016C25.6457 20.1112 25.7748 20.2597 25.8641 20.4339C25.9533 20.608 26 20.8025 26 21V25.8C26 26.1183 25.8788 26.4235 25.6632 26.6485C25.4475 26.8736 25.155 27 24.85 27H17.95ZM15.65 12.6C15.65 14.5882 14.1054 16.2 12.2 16.2C10.2946 16.2 8.75 14.5882 8.75 12.6C8.75 10.6118 10.2946 9 12.2 9C14.1054 9 15.65 10.6118 15.65 12.6Z" stroke="white" stroke-width="2" stroke-linecap="round" stroke-linejoin="round"/>
</svg>
