<svg width="25" height="30" viewBox="0 0 25 30" fill="none" xmlns="http://www.w3.org/2000/svg">
<path d="M17.25 5.4H19.625C20.2549 5.4 20.859 5.65286 21.3044 6.10294C21.7498 6.55303 22 7.16348 22 7.8V24.6C22 25.2365 21.7498 25.847 21.3044 26.2971C20.859 26.7471 20.2549 27 19.625 27H5.375C4.74511 27 4.14102 26.7471 3.69562 26.2971C3.25022 25.847 3 25.2365 3 24.6V7.8C3 7.16348 3.25022 6.55303 3.69562 6.10294C4.14102 5.65286 4.74511 5.4 5.375 5.4H7.75M12.5 13.8H17.25M12.5 19.8H17.25M7.75 13.8H7.76188M7.75 19.8H7.76188M8.9375 3H16.0625C16.7183 3 17.25 3.53726 17.25 4.2V6.6C17.25 7.26274 16.7183 7.8 16.0625 7.8H8.9375C8.28166 7.8 7.75 7.26274 7.75 6.6V4.2C7.75 3.53726 8.28166 3 8.9375 3Z" stroke="white" stroke-width="2" stroke-linecap="round" stroke-linejoin="round"/>
</svg>
