<svg width="24" height="24" viewBox="0 0 24 24" fill="none" xmlns="http://www.w3.org/2000/svg">
<path d="M12.658 22H17.999C18.5295 22 19.0382 21.7893 19.4133 21.4142C19.7883 21.0391 19.999 20.5304 19.999 20V8.00001M19.999 8.00001C19.9998 7.68312 19.9378 7.36921 19.8167 7.0764C19.6955 6.78359 19.5175 6.51768 19.293 6.29401L15.705 2.70601C15.4814 2.48153 15.2155 2.30357 14.9227 2.18239C14.6298 2.06122 14.3159 1.99923 13.999 2.00001M19.999 8.00001H14.999C14.7338 8.00001 14.4795 7.89465 14.2919 7.70711C14.1044 7.51958 13.999 7.26522 13.999 7.00001L13.999 2.00001M13.999 2.00001H5.99905C5.46861 2.00001 4.95991 2.21072 4.58483 2.58579C4.20976 2.96087 3.99905 3.46957 3.99905 4.00001V13.34M10.377 12.622C10.7753 12.2242 11.3152 12.0008 11.8781 12.0011C12.441 12.0014 12.9807 12.2253 13.3785 12.6235C13.7764 13.0217 13.9997 13.5617 13.9994 14.1246C13.9991 14.6875 13.7753 15.2272 13.377 15.625L8.35905 20.637C8.12142 20.8748 7.82771 21.0488 7.50505 21.143L4.63805 21.98C4.552 22.0051 4.46079 22.0066 4.37396 21.9844C4.28713 21.9621 4.20787 21.9169 4.14449 21.8536C4.08111 21.7902 4.03594 21.7109 4.01369 21.6241C3.99144 21.5373 3.99295 21.4461 4.01805 21.36L4.85405 18.491C4.94842 18.1687 5.12244 17.8753 5.36005 17.638L10.377 12.622Z" stroke="#45AD8A" stroke-width="2" stroke-linecap="round" stroke-linejoin="round"/>
</svg>
