<svg width="87" height="125" viewBox="0 0 87 125" fill="none" xmlns="http://www.w3.org/2000/svg">
<path d="M38.9473 10.5C65.3569 12.8778 74.9834 34.8155 76.5 45.5361V114.5H51.9336V42.6914H0.5V10.5H38.9473Z" fill="#98999B" stroke="white"/>
<path d="M21.532 21.088H22.528V29.104H21.532V21.088ZM19.18 24.424H21.724V25.252H19.18V24.424ZM18.172 21.916H19.228C19.228 22.852 19.02 23.708 18.604 24.484C18.188 25.252 17.604 25.92 16.852 26.488C16.1 27.056 15.212 27.512 14.188 27.856L13.768 27.052C14.648 26.756 15.42 26.376 16.084 25.912C16.748 25.448 17.26 24.912 17.62 24.304C17.988 23.696 18.172 23.036 18.172 22.324V21.916ZM14.308 21.916H18.82V22.744H14.308V21.916ZM15.664 30.88H22.804V31.696H15.664V30.88ZM15.664 28.288H16.672V31.288H15.664V28.288ZM29.0431 27.112H30.0271V28.816H29.0431V27.112ZM24.6391 26.536H34.4431V27.34H24.6391V26.536ZM25.7311 28.576H33.2311V31.9H32.2351V29.38H25.7311V28.576ZM29.0431 21.028H30.0271V22.54H29.0431V21.028ZM28.9951 22.66H29.8711V22.84C29.8711 23.288 29.7591 23.692 29.5351 24.052C29.3111 24.404 28.9951 24.708 28.5871 24.964C28.1871 25.22 27.7231 25.432 27.1951 25.6C26.6751 25.76 26.1191 25.872 25.5271 25.936L25.2151 25.18C25.7431 25.124 26.2351 25.032 26.6911 24.904C27.1471 24.776 27.5471 24.612 27.8911 24.412C28.2431 24.204 28.5151 23.968 28.7071 23.704C28.8991 23.44 28.9951 23.152 28.9951 22.84V22.66ZM29.2111 22.66H30.0751V22.84C30.0751 23.152 30.1711 23.44 30.3631 23.704C30.5631 23.968 30.8351 24.204 31.1791 24.412C31.5311 24.612 31.9311 24.776 32.3791 24.904C32.8351 25.032 33.3271 25.124 33.8551 25.18L33.5431 25.936C32.9591 25.872 32.4031 25.76 31.8751 25.6C31.3471 25.432 30.8831 25.22 30.4831 24.964C30.0831 24.708 29.7711 24.404 29.5471 24.052C29.3231 23.692 29.2111 23.288 29.2111 22.84V22.66ZM25.6471 22.144H33.4471V22.936H25.6471V22.144ZM36.2661 21.916H41.0661V22.744H36.2661V21.916ZM37.8981 24.34H38.8821V27.052H37.8981V24.34ZM40.6701 21.916H41.6421V22.492C41.6421 22.852 41.6301 23.3 41.6061 23.836C41.5901 24.372 41.5101 24.996 41.3661 25.708L40.3821 25.612C40.5261 24.892 40.6101 24.28 40.6341 23.776C40.6581 23.272 40.6701 22.844 40.6701 22.492V21.916ZM43.1181 21.076H44.1261V29.248H43.1181V21.076ZM43.6701 24.604H45.6741V25.444H43.6701V24.604ZM37.2621 30.88H44.4741V31.696H37.2621V30.88ZM37.2621 28.504H38.2581V31.12H37.2621V28.504ZM35.7141 27.52L35.6061 26.704C36.2461 26.704 36.9541 26.696 37.7301 26.68C38.5061 26.664 39.2941 26.632 40.0941 26.584C40.8941 26.528 41.6621 26.452 42.3981 26.356L42.4581 27.088C41.7141 27.216 40.9421 27.312 40.1421 27.376C39.3421 27.44 38.5621 27.48 37.8021 27.496C37.0501 27.512 36.3541 27.52 35.7141 27.52Z" fill="white"/>
</svg>
