<svg width="98" height="90" viewBox="0 0 98 90" fill="none" xmlns="http://www.w3.org/2000/svg">
<path d="M35.0153 25.7424C53.9678 11.9112 80.5447 16.0626 94.3761 35.015L96.8538 38.4102L28.2204 88.4982L25.7427 85.1031C11.9113 66.1506 16.0629 39.5737 35.0153 25.7424Z" fill="#98999B"/>
<path d="M35.0153 25.7424C53.9678 11.9112 80.5447 16.0626 94.3761 35.015L96.8538 38.4102L28.2204 88.4982L25.7427 85.1031C11.9113 66.1506 16.0629 39.5737 35.0153 25.7424Z" stroke="white"/>
<path d="M25.0554 56.2352C25.4884 55.9192 25.9616 55.767 26.4751 55.7785C26.9839 55.7835 27.4994 55.947 28.0216 56.2691C28.5439 56.5911 29.0313 57.0624 29.4841 57.6827C29.9368 58.3031 30.2369 58.9111 30.3843 59.5066C30.5318 60.1022 30.5327 60.6463 30.387 61.1388C30.2414 61.6313 29.9521 62.0356 29.5191 62.3516C29.0926 62.6628 28.6194 62.8151 28.0994 62.8083C27.5859 62.7968 27.0681 62.63 26.5458 62.3079C26.0236 61.9859 25.5361 61.5147 25.0834 60.8943C24.6306 60.274 24.3305 59.666 24.1831 59.0704C24.0357 58.4748 24.0371 57.934 24.1875 57.4479C24.3396 56.9507 24.6289 56.5464 25.0554 56.2352ZM25.5789 56.9525C25.301 57.1552 25.123 57.4337 25.0447 57.788C24.9682 58.131 24.9983 58.525 25.1349 58.97C25.2668 59.4086 25.5049 59.8637 25.8491 60.3355C26.1934 60.8072 26.5566 61.176 26.9388 61.4418C27.3162 61.7011 27.6823 61.8499 28.037 61.8882C28.3982 61.9217 28.721 61.8347 29.0053 61.6272C29.2832 61.4244 29.458 61.1483 29.5298 60.7988C29.608 60.4446 29.578 60.0505 29.4396 59.6167C29.303 59.1717 29.0626 58.7133 28.7183 58.2416C28.374 57.7698 28.0132 57.4043 27.6357 57.1449C27.26 56.8744 26.894 56.7256 26.5375 56.6986C26.1828 56.6603 25.8632 56.745 25.5789 56.9525ZM30.3535 54.701L31.9723 53.5197L32.4674 54.1982L30.8487 55.3795L30.3535 54.701ZM32.2635 57.3182L33.8822 56.1368L34.3704 56.8057L32.7516 57.987L32.2635 57.3182ZM28.1661 52.9251L28.9706 52.338L35.3726 61.1103L34.5681 61.6975L28.1661 52.9251ZM36.7813 53.3526L37.5858 52.7655L39.0431 54.7623L38.2385 55.3494L36.7813 53.3526ZM34.4083 49.2461C34.8671 48.9112 35.3347 48.7037 35.811 48.6235C36.289 48.5322 36.7414 48.5685 37.1681 48.7325C37.5948 48.8964 37.959 49.1852 38.2608 49.5988C38.5532 49.9995 38.7148 50.4312 38.7456 50.894C38.7716 51.3504 38.6706 51.7955 38.4425 52.2294C38.2162 52.6521 37.8736 53.0308 37.4148 53.3657C36.9624 53.6958 36.4972 53.9065 36.0192 53.9979C35.5365 54.0828 35.0785 54.0456 34.6453 53.8864C34.2139 53.7159 33.852 53.4304 33.5596 53.0297C33.2578 52.6161 33.0939 52.1812 33.0678 51.7248C33.0483 51.2637 33.1549 50.8194 33.3877 50.392C33.6158 49.9582 33.956 49.5762 34.4083 49.2461ZM34.9177 49.944C34.6204 50.1609 34.3947 50.4148 34.2405 50.7056C34.088 50.9852 34.0194 51.278 34.0346 51.5838C34.0451 51.8831 34.1517 52.1718 34.3545 52.4496C34.5478 52.7146 34.7902 52.9042 35.0815 53.0184C35.3681 53.1261 35.6702 53.1533 35.9877 53.0998C36.307 53.0352 36.6153 52.8944 36.9125 52.6775C37.2162 52.4558 37.4443 52.2052 37.5968 51.9255C37.7446 51.6394 37.8108 51.3435 37.7956 51.0377C37.7757 50.7254 37.6691 50.4368 37.4757 50.1718C37.2729 49.8939 37.0306 49.7043 36.7487 49.6031C36.462 49.4953 36.1623 49.4714 35.8495 49.5313C35.532 49.5848 35.2214 49.7223 34.9177 49.944ZM37.4902 46.1204L38.2947 45.5333L44.7038 54.3153L43.8993 54.9025L37.4902 46.1204ZM36.3214 57.5062L35.7267 56.9151C36.263 56.5237 36.8487 56.0913 37.4838 55.618C38.1141 55.1382 38.7544 54.6313 39.4046 54.0973C40.0566 53.5522 40.6638 53.0001 41.2264 52.441L41.7258 52.9827C41.1562 53.5866 40.5511 54.1619 39.9103 54.7088C39.2759 55.2509 38.6501 55.7572 38.0327 56.2276C37.4153 56.698 36.8449 57.1242 36.3214 57.5062ZM50.7591 44.9196C51.3859 44.4621 51.9726 44.133 52.5193 43.9321C53.0724 43.7265 53.559 43.6536 53.9791 43.7135C54.4056 43.7687 54.7438 43.9675 54.9938 44.31C55.2343 44.6396 55.3182 45.0191 55.2453 45.4486C55.1743 45.8669 54.9541 46.3049 54.5849 46.7625C54.2269 47.2219 53.7345 47.6803 53.1076 48.1377C52.4873 48.5905 51.9005 48.9196 51.3474 49.1252C50.799 49.3373 50.3147 49.4134 49.8947 49.3535C49.4699 49.2871 49.1373 49.0892 48.8968 48.7596C48.6468 48.4171 48.5574 48.0367 48.6284 47.6184C48.6995 47.2001 48.9173 46.7589 49.2818 46.2948C49.6463 45.8307 50.1387 45.3723 50.7591 44.9196ZM51.2118 45.54C50.753 45.8748 50.3862 46.2068 50.1115 46.5361C49.8321 46.8588 49.6529 47.1629 49.5739 47.4483C49.5015 47.729 49.5407 47.9727 49.6916 48.1795C49.8331 48.3734 50.0485 48.4786 50.3379 48.4952C50.6338 48.5071 50.9781 48.4291 51.3707 48.2615C51.7633 48.0938 52.189 47.8425 52.6478 47.5077C53.1131 47.1681 53.4855 46.837 53.7649 46.5142C54.0443 46.1914 54.2203 45.8897 54.2928 45.609C54.3717 45.3236 54.3404 45.084 54.1989 44.8901C54.048 44.6833 53.8246 44.574 53.5288 44.5621C53.2394 44.5455 52.8984 44.6211 52.5057 44.7888C52.1084 44.95 51.6771 45.2004 51.2118 45.54ZM44.0597 42.0095L49.7012 37.8924L50.1751 38.5418L44.5337 42.6589L44.0597 42.0095ZM45.7819 46.3235L53.6819 40.5582L54.1629 41.2173L46.2629 46.9826L45.7819 46.3235ZM47.7983 42.2671L48.5931 41.687L49.9655 43.5675L49.1706 44.1476L47.7983 42.2671ZM49.2359 38.2319L50.0307 37.6519L50.5683 38.3885C50.8277 38.744 51.0845 39.1161 51.3386 39.5051C51.5881 39.8876 51.8164 40.3498 52.0238 40.8918L51.175 41.3775C50.9612 40.8403 50.7366 40.3901 50.5013 40.027C50.2661 39.6639 50.0235 39.3111 49.7735 38.9686L49.2359 38.2319ZM56.7673 34.1617L59.4039 32.2376L59.8849 32.8967L57.2484 34.8208L56.7673 34.1617ZM58.2953 36.2554L60.9319 34.3313L61.4129 34.9904L58.7763 36.9146L58.2953 36.2554ZM58.1253 31.076L58.9299 30.4888L63.6553 36.9639L62.8508 37.551L58.1253 31.076ZM59.1093 42.4802L64.9446 38.2216L65.4256 38.8808L59.5903 43.1393L59.1093 42.4802ZM57.5742 40.3768L58.3691 39.7967L60.1093 42.1812L59.3144 42.7613L57.5742 40.3768ZM54.5156 34.5571C54.9421 34.2459 55.3917 34.0613 55.8645 34.0035C56.3438 33.9409 56.8006 34.0037 57.235 34.1918C57.6758 34.3752 58.0519 34.6801 58.3631 35.1066C58.6791 35.5396 58.8572 35.9939 58.8974 36.4697C58.944 36.9408 58.8645 37.395 58.6587 37.8323C58.4595 38.2649 58.1466 38.6369 57.7201 38.9481C57.2871 39.2641 56.831 39.4534 56.3518 39.5159C55.879 39.5738 55.4221 39.511 54.9813 39.3276C54.5469 39.1395 54.1717 38.829 53.8558 38.396C53.5445 37.9695 53.3656 37.5208 53.3189 37.0497C53.2787 36.5739 53.3583 36.1197 53.5575 35.6871C53.7633 35.2498 54.0826 34.8731 54.5156 34.5571ZM55.039 35.2744C54.7547 35.4819 54.5466 35.7328 54.4148 36.0271C54.2782 36.315 54.2278 36.6191 54.2636 36.9396C54.2947 37.2537 54.4164 37.5561 54.6286 37.8469C54.8361 38.1312 55.087 38.3393 55.3813 38.4712C55.6756 38.603 55.983 38.651 56.3035 38.6152C56.6193 38.5729 56.9194 38.448 57.2037 38.2405C57.4816 38.0378 57.6888 37.7924 57.8254 37.5046C57.9572 37.2103 58.0052 36.9029 57.9694 36.5824C57.9336 36.2619 57.8119 35.9595 57.6044 35.6752C57.3922 35.3844 57.1413 35.1763 56.8517 35.0509C56.5574 34.919 56.2524 34.8742 55.9366 34.9165C55.6161 34.9523 55.3169 35.0716 55.039 35.2744ZM63.4758 28.5974L64.1349 28.1164L64.6514 28.824C65.0475 29.3668 65.3096 29.9431 65.4376 30.5528C65.5722 31.1578 65.5802 31.7659 65.4618 32.3772C65.3499 32.9838 65.1112 33.5592 64.7456 34.1032L63.8716 33.7606C64.1979 33.2848 64.422 32.7845 64.5441 32.2597C64.6614 31.7283 64.6738 31.2093 64.5812 30.7024C64.4951 30.1908 64.2988 29.725 63.9922 29.305L63.4758 28.5974ZM63.6212 28.4913L64.2803 28.0102L64.7967 28.7179C65.075 29.0991 65.4263 29.3973 65.8508 29.6125C66.2752 29.8277 66.74 29.9489 67.2453 29.9763C67.7506 30.0037 68.2707 29.9361 68.8057 29.7735L68.8875 30.6794C68.2737 30.8698 67.6736 30.9364 67.0871 30.8791C66.5006 30.8219 65.9516 30.6531 65.44 30.3728C64.9302 30.0813 64.496 29.69 64.1376 29.1989L63.6212 28.4913ZM61.3056 29.7355L65.9971 26.3117L66.4781 26.9709L61.7866 30.3947L61.3056 29.7355ZM66.6281 24.8558L67.4327 24.2687L71.288 29.5515L70.4835 30.1386L66.6281 24.8558ZM68.8368 26.6608L70.3489 25.5573L70.837 26.2261L69.3249 27.3297L68.8368 26.6608ZM68.6732 31.8311C69.2677 31.3973 69.8254 31.0893 70.3462 30.9073C70.8688 30.7141 71.3336 30.6522 71.7408 30.7215C72.1479 30.7908 72.4764 30.9967 72.7264 31.3392C72.9763 31.6817 73.0722 32.0574 73.0141 32.4663C72.956 32.8752 72.7576 33.3022 72.4189 33.7474C72.0867 34.1879 71.6234 34.6251 71.0289 35.059C70.4344 35.4929 69.8735 35.8032 69.3462 35.9899C68.8189 36.1766 68.3517 36.2353 67.9445 36.166C67.5374 36.0967 67.2089 35.8908 66.9589 35.5483C66.709 35.2058 66.6131 34.8301 66.6712 34.4212C66.7294 34.0123 66.9301 33.5885 67.2735 33.1498C67.6121 32.7046 68.0787 32.265 68.6732 31.8311ZM69.1401 32.4709C68.7071 32.7869 68.3606 33.0992 68.1006 33.4078C67.847 33.7117 67.6881 33.9961 67.6238 34.2608C67.5595 34.5256 67.6029 34.7614 67.7538 34.9682C67.9047 35.175 68.1184 35.2914 68.3949 35.3174C68.6666 35.337 68.9859 35.2723 69.3527 35.1235C69.7259 34.97 70.129 34.7352 70.562 34.4192C70.9949 34.1033 71.3382 33.7933 71.5918 33.4894C71.8454 33.1855 72.0043 32.9011 72.0686 32.6364C72.1281 32.3651 72.0825 32.1261 71.9315 31.9193C71.7806 31.7125 71.5693 31.5993 71.2975 31.5798C71.0258 31.5602 70.7065 31.6249 70.3397 31.7737C69.9729 31.9225 69.5731 32.1549 69.1401 32.4709Z" fill="white"/>
</svg>
