<svg width="95" height="38" viewBox="0 0 95 38" fill="none" xmlns="http://www.w3.org/2000/svg">
<mask id="path-1-inside-1_1244_8281" fill="white">
<path d="M95 17.5693H87.2734V38.001H0V6.53906H33.1973C33.43 3.34361 36.3854 0.816406 39.999 0.816406C43.6126 0.81648 46.5681 3.34365 46.8008 6.53906H50.4541V0H95V17.5693Z"/>
</mask>
<path d="M95 17.5693H87.2734V38.001H0V6.53906H33.1973C33.43 3.34361 36.3854 0.816406 39.999 0.816406C43.6126 0.81648 46.5681 3.34365 46.8008 6.53906H50.4541V0H95V17.5693Z" fill="#A6A6A6" fill-opacity="0.9"/>
<path d="M95 17.5693V18.5693H96V17.5693H95ZM87.2734 17.5693V16.5693H86.2734V17.5693H87.2734ZM87.2734 38.001V39.001H88.2734V38.001H87.2734ZM0 38.001H-1V39.001H0V38.001ZM0 6.53906V5.53906H-1V6.53906H0ZM33.1973 6.53906V7.53906H34.1271L34.1946 6.61171L33.1973 6.53906ZM39.999 0.816406L39.999 -0.183594H39.999V0.816406ZM46.8008 6.53906L45.8034 6.6117L45.871 7.53906H46.8008V6.53906ZM50.4541 6.53906V7.53906H51.4541V6.53906H50.4541ZM50.4541 0V-1H49.4541V0H50.4541ZM95 0H96V-1H95V0ZM95 17.5693V16.5693H87.2734V17.5693V18.5693H95V17.5693ZM87.2734 17.5693H86.2734V38.001H87.2734H88.2734V17.5693H87.2734ZM87.2734 38.001V37.001H0V38.001V39.001H87.2734V38.001ZM0 38.001H1V6.53906H0H-1V38.001H0ZM0 6.53906V7.53906H33.1973V6.53906V5.53906H0V6.53906ZM33.1973 6.53906L34.1946 6.61171C34.3832 4.0224 36.8215 1.81641 39.999 1.81641V0.816406V-0.183594C35.9493 -0.183594 32.4768 2.66483 32.1999 6.46642L33.1973 6.53906ZM39.999 0.816406L39.999 1.81641C43.1765 1.81647 45.6148 4.02245 45.8034 6.6117L46.8008 6.53906L47.7981 6.46642C47.5213 2.66484 44.0487 -0.183512 39.999 -0.183594L39.999 0.816406ZM46.8008 6.53906V7.53906H50.4541V6.53906V5.53906H46.8008V6.53906ZM50.4541 6.53906H51.4541V0H50.4541H49.4541V6.53906H50.4541ZM50.4541 0V1H95V0V-1H50.4541V0ZM95 0H94V17.5693H95H96V0H95Z" fill="white" mask="url(#path-1-inside-1_1244_8281)"/>
<path d="M25.0459 17.228H31.4539V18.032H25.0459V17.228ZM28.2499 18.596C28.7619 18.596 29.2139 18.676 29.6059 18.836C29.9979 18.996 30.3019 19.224 30.5179 19.52C30.7339 19.808 30.8419 20.152 30.8419 20.552C30.8419 20.952 30.7339 21.296 30.5179 21.584C30.3019 21.872 29.9979 22.1 29.6059 22.268C29.2139 22.428 28.7619 22.508 28.2499 22.508C27.7379 22.508 27.2859 22.428 26.8939 22.268C26.5019 22.1 26.1939 21.872 25.9699 21.584C25.7539 21.296 25.6459 20.952 25.6459 20.552C25.6459 20.152 25.7539 19.808 25.9699 19.52C26.1939 19.224 26.5019 18.996 26.8939 18.836C27.2859 18.676 27.7379 18.596 28.2499 18.596ZM28.2499 19.364C27.7539 19.364 27.3539 19.472 27.0499 19.688C26.7539 19.896 26.6059 20.184 26.6059 20.552C26.6059 20.912 26.7539 21.2 27.0499 21.416C27.3539 21.624 27.7539 21.728 28.2499 21.728C28.7379 21.728 29.1339 21.624 29.4379 21.416C29.7419 21.2 29.8939 20.912 29.8939 20.552C29.8939 20.184 29.7419 19.896 29.4379 19.688C29.1419 19.472 28.7459 19.364 28.2499 19.364ZM32.4499 16.076H33.4459V22.868H32.4499V16.076ZM33.1699 19.076H35.0419V19.904H33.1699V19.076ZM26.3899 23.456H33.4459V26.936H32.4499V24.272H26.3899V23.456ZM27.7579 16.028H28.7539V17.672H27.7579V16.028ZM38.3289 16.76H39.1209V18.212C39.1209 18.748 39.0209 19.28 38.8209 19.808C38.6209 20.336 38.3329 20.812 37.9569 21.236C37.5889 21.66 37.1369 21.992 36.6009 22.232L36.0609 21.464C36.5329 21.256 36.9369 20.976 37.2729 20.624C37.6169 20.264 37.8769 19.872 38.0529 19.448C38.2369 19.024 38.3289 18.612 38.3289 18.212V16.76ZM38.4969 16.76H39.2889V18.212C39.2889 18.604 39.3729 18.996 39.5409 19.388C39.7169 19.772 39.9689 20.12 40.2969 20.432C40.6329 20.736 41.0289 20.98 41.4849 21.164L40.9569 21.932C40.4369 21.724 39.9929 21.428 39.6249 21.044C39.2569 20.66 38.9769 20.224 38.7849 19.736C38.5929 19.248 38.4969 18.74 38.4969 18.212V16.76ZM44.2569 16.088H45.2049V22.784H44.2569V16.088ZM42.5289 18.992H44.5689V19.808H42.5289V18.992ZM41.9289 16.292H42.8649V22.436H41.9289V16.292ZM41.6409 23.024C42.3849 23.024 43.0249 23.1 43.5609 23.252C44.1049 23.404 44.5249 23.628 44.8209 23.924C45.1169 24.212 45.2649 24.56 45.2649 24.968C45.2649 25.376 45.1169 25.724 44.8209 26.012C44.5249 26.308 44.1049 26.532 43.5609 26.684C43.0249 26.836 42.3849 26.912 41.6409 26.912C40.8969 26.912 40.2529 26.836 39.7089 26.684C39.1649 26.532 38.7449 26.308 38.4489 26.012C38.1609 25.724 38.0169 25.376 38.0169 24.968C38.0169 24.56 38.1609 24.212 38.4489 23.924C38.7449 23.628 39.1649 23.404 39.7089 23.252C40.2529 23.1 40.8969 23.024 41.6409 23.024ZM41.6409 23.792C40.8249 23.792 40.1809 23.896 39.7089 24.104C39.2369 24.312 39.0009 24.6 39.0009 24.968C39.0009 25.336 39.2369 25.624 39.7089 25.832C40.1809 26.04 40.8249 26.144 41.6409 26.144C42.1849 26.144 42.6529 26.096 43.0449 26C43.4369 25.912 43.7369 25.78 43.9449 25.604C44.1609 25.428 44.2689 25.216 44.2689 24.968C44.2689 24.6 44.0329 24.312 43.5609 24.104C43.0969 23.896 42.4569 23.792 41.6409 23.792ZM50.196 22.592H51.192V24.38H50.196V22.592ZM54.948 16.076H55.944V26.936H54.948V16.076ZM47.304 24.872L47.16 24.032C47.848 24.024 48.592 24.016 49.392 24.008C50.192 24 51.008 23.972 51.84 23.924C52.672 23.876 53.476 23.8 54.252 23.696L54.324 24.44C53.524 24.568 52.712 24.664 51.888 24.728C51.064 24.784 50.26 24.824 49.476 24.848C48.692 24.864 47.968 24.872 47.304 24.872ZM47.388 17.408H53.976V18.212H47.388V17.408ZM50.676 18.824C51.196 18.824 51.652 18.908 52.044 19.076C52.436 19.244 52.74 19.48 52.956 19.784C53.18 20.08 53.292 20.432 53.292 20.84C53.292 21.24 53.18 21.592 52.956 21.896C52.74 22.2 52.436 22.436 52.044 22.604C51.652 22.764 51.196 22.844 50.676 22.844C50.164 22.844 49.712 22.764 49.32 22.604C48.928 22.436 48.624 22.2 48.408 21.896C48.192 21.592 48.084 21.24 48.084 20.84C48.084 20.432 48.192 20.08 48.408 19.784C48.624 19.48 48.928 19.244 49.32 19.076C49.712 18.908 50.164 18.824 50.676 18.824ZM50.676 19.604C50.196 19.604 49.8 19.716 49.488 19.94C49.176 20.164 49.02 20.464 49.02 20.84C49.02 21.208 49.176 21.504 49.488 21.728C49.8 21.952 50.196 22.064 50.676 22.064C51.172 22.064 51.572 21.952 51.876 21.728C52.188 21.504 52.344 21.208 52.344 20.84C52.344 20.464 52.188 20.164 51.876 19.94C51.572 19.716 51.172 19.604 50.676 19.604ZM50.196 16.088H51.192V17.84H50.196V16.088ZM58.7271 16.916H63.5271V17.744H58.7271V16.916ZM60.3591 19.34H61.3431V22.052H60.3591V19.34ZM63.1311 16.916H64.1031V17.492C64.1031 17.852 64.0911 18.3 64.0671 18.836C64.0511 19.372 63.9711 19.996 63.8271 20.708L62.8431 20.612C62.9871 19.892 63.0711 19.28 63.0951 18.776C63.1191 18.272 63.1311 17.844 63.1311 17.492V16.916ZM65.5791 16.076H66.5871V24.248H65.5791V16.076ZM66.1311 19.604H68.1351V20.444H66.1311V19.604ZM59.7231 25.88H66.9351V26.696H59.7231V25.88ZM59.7231 23.504H60.7191V26.12H59.7231V23.504ZM58.1751 22.52L58.0671 21.704C58.7071 21.704 59.4151 21.696 60.1911 21.68C60.9671 21.664 61.7551 21.632 62.5551 21.584C63.3551 21.528 64.1231 21.452 64.8591 21.356L64.9191 22.088C64.1751 22.216 63.4031 22.312 62.6031 22.376C61.8031 22.44 61.0231 22.48 60.2631 22.496C59.5111 22.512 58.8151 22.52 58.1751 22.52Z" fill="white"/>
</svg>
