<svg width="59" height="57" viewBox="0 0 59 57" fill="none" xmlns="http://www.w3.org/2000/svg">
<path d="M43.5005 26.7623C43.1951 27.0816 43.024 27.511 43.024 27.9581C43.024 28.4053 43.1951 28.8346 43.5005 29.154L46.1671 31.8873C46.4787 32.2003 46.8975 32.3756 47.3338 32.3756C47.77 32.3756 48.1889 32.2003 48.5005 31.8873L53.6771 26.5829C54.2105 26.0328 55.1155 26.2071 55.3155 26.9553C55.819 28.8326 55.7906 30.818 55.2334 32.6793C54.6763 34.5405 53.6135 36.2007 52.1694 37.4654C50.7254 38.7302 48.9598 39.5472 47.0792 39.8209C45.1987 40.0946 43.2809 39.8137 41.5505 39.011L28.3671 52.524C27.7041 53.2034 26.8049 53.5849 25.8674 53.5848C24.9298 53.5846 24.0308 53.2027 23.368 52.5231C22.7051 51.8435 22.3329 50.9218 22.333 49.9609C22.3332 48.9999 22.7057 48.0784 23.3688 47.399L36.5521 33.886C35.769 32.1123 35.495 30.1466 35.762 28.2191C36.0291 26.2915 36.8262 24.4818 38.0601 23.0016C39.2939 21.5214 40.9136 20.4321 42.7295 19.861C44.5453 19.2899 46.4823 19.2608 48.3138 19.7769C49.0438 19.9819 49.2138 20.9078 48.6788 21.4579L43.5005 26.7623Z" stroke="#959595" stroke-width="2" stroke-linecap="round" stroke-linejoin="round"/>
<path d="M14.1034 6.03099C14.1837 5.18565 14.5764 4.40064 15.2046 3.82932C15.8328 3.25799 16.6514 2.94141 17.5006 2.94141C18.3497 2.94141 19.1684 3.25799 19.7966 3.82932C20.4248 4.40064 20.8174 5.18565 20.8978 6.03099C20.946 6.57707 21.1252 7.10348 21.42 7.56565C21.7149 8.02783 22.1167 8.41217 22.5916 8.68615C23.0664 8.96012 23.6003 9.11566 24.1479 9.13961C24.6956 9.16355 25.241 9.05519 25.738 8.8237C26.5096 8.47338 27.3839 8.42269 28.1909 8.68149C28.9978 8.9403 29.6796 9.49009 30.1035 10.2239C30.5274 10.9576 30.6632 11.8229 30.4843 12.6512C30.3055 13.4795 29.8248 14.2117 29.1359 14.7052C28.6873 15.0199 28.3211 15.4381 28.0682 15.9244C27.8154 16.4106 27.6834 16.9506 27.6834 17.4986C27.6834 18.0466 27.8154 18.5866 28.0682 19.0728C28.3211 19.5591 28.6873 19.9773 29.1359 20.292C29.8248 20.7855 30.3055 21.5177 30.4843 22.346C30.6632 23.1743 30.5274 24.0396 30.1035 24.7733C29.6796 25.5071 28.9978 26.0569 28.1909 26.3157C27.3839 26.5745 26.5096 26.5238 25.738 26.1735C25.241 25.942 24.6956 25.8336 24.1479 25.8576C23.6003 25.8815 23.0664 26.0371 22.5916 26.311C22.1167 26.585 21.7149 26.9694 21.42 27.4315C21.1252 27.8937 20.946 28.4201 20.8978 28.9662C20.8174 29.8115 20.4248 30.5966 19.7966 31.1679C19.1684 31.7392 18.3497 32.0558 17.5006 32.0558C16.6514 32.0558 15.8328 31.7392 15.2046 31.1679C14.5764 30.5966 14.1837 29.8115 14.1034 28.9662C14.0552 28.4199 13.876 27.8933 13.5811 27.431C13.2862 26.9686 12.8842 26.5842 12.4091 26.3102C11.9341 26.0362 11.4 25.8807 10.8521 25.8569C10.3043 25.8331 9.75871 25.9417 9.26171 26.1735C8.49009 26.5238 7.61573 26.5745 6.80879 26.3157C6.00186 26.0569 5.32009 25.5071 4.89616 24.7733C4.47224 24.0396 4.3365 23.1743 4.51536 22.346C4.69422 21.5177 5.17488 20.7855 5.86379 20.292C6.3124 19.9773 6.67861 19.5591 6.93142 19.0728C7.18424 18.5866 7.31622 18.0466 7.31622 17.4986C7.31622 16.9506 7.18424 16.4106 6.93142 15.9244C6.67861 15.4381 6.3124 15.0199 5.86379 14.7052C5.17584 14.2114 4.69603 13.4796 4.51761 12.6518C4.33918 11.824 4.47489 10.9595 4.89835 10.2262C5.32182 9.49291 6.00279 8.94325 6.80892 8.68405C7.61506 8.42485 8.48877 8.47463 9.26025 8.8237C9.75719 9.05519 10.3026 9.16355 10.8503 9.13961C11.398 9.11566 11.9318 8.96012 12.4067 8.68615C12.8815 8.41217 13.2833 8.02783 13.5782 7.56565C13.873 7.10348 14.0522 6.57707 14.1005 6.03099M21.8748 17.4993C21.8748 19.9156 19.9161 21.8743 17.4998 21.8743C15.0836 21.8743 13.1248 19.9156 13.1248 17.4993C13.1248 15.0831 15.0836 13.1243 17.4998 13.1243C19.9161 13.1243 21.8748 15.0831 21.8748 17.4993Z" stroke="#959595" stroke-width="2" stroke-linecap="round" stroke-linejoin="round"/>
</svg>
