<svg width="55" height="57" viewBox="0 0 55 57" fill="none" xmlns="http://www.w3.org/2000/svg">
<path d="M10 25.6924C13.6317 26.7111 19.4711 27.8732 25.8135 28.2217C32.1631 28.5706 39.1752 28.1141 45 25.7588V42.5195C45 43.5342 44.5906 44.5081 43.8613 45.2256C43.1321 45.943 42.1426 46.3456 41.1113 46.3457H31.3887C30.3574 46.3456 29.3679 45.943 28.6387 45.2256C27.9094 44.5081 27.5 43.5342 27.5 42.5195V38.6943L13.8887 46.3457C12.8574 46.3456 11.8679 45.943 11.1387 45.2256C10.4094 44.5081 10 43.5342 10 42.5195V25.6924ZM27.5 10C28.419 10 29.3088 10.3197 30.0107 10.9033L43.6211 22.3809C43.8021 22.5313 43.9678 22.6978 44.1172 22.877C38.8463 25.0769 32.239 25.5705 25.9785 25.2266C19.9304 24.8943 14.3595 23.79 10.918 22.834C11.058 22.671 11.2123 22.5194 11.3789 22.3809L24.9893 10.9033C25.6912 10.3197 26.581 10 27.5 10Z" fill="#75C8FF"/>
</svg>
