<svg width="24" height="24" viewBox="0 0 24 24" fill="none" xmlns="http://www.w3.org/2000/svg">
<path d="M10.8518 14.7728L10.4688 15.6958M10.8518 9.22876L10.4688 8.30576M13.1478 14.7728L13.5298 15.6968M13.5308 8.30576L13.1478 9.22876M14.7718 10.8528L15.6948 10.4698M14.7718 13.1488L15.6948 13.5318M17.5978 6.50076C17.8279 6.10224 17.9632 5.65614 17.9934 5.19695C18.0235 4.73776 17.9476 4.2778 17.7715 3.85265C17.5954 3.4275 17.3238 3.04855 16.9779 2.74513C16.6319 2.44171 16.2208 2.22195 15.7763 2.10285C15.3318 1.98375 14.8658 1.96849 14.4145 2.05827C13.9632 2.14805 13.5385 2.34046 13.1735 2.6206C12.8084 2.90075 12.5127 3.26112 12.3091 3.67384C12.1056 4.08657 11.9998 4.54058 11.9998 5.00076C12.0004 4.33455 11.7792 3.68709 11.3712 3.16049C10.9631 2.63388 10.3914 2.25808 9.74609 2.09236C9.10083 1.92663 8.41875 1.9804 7.80743 2.24518C7.1961 2.50997 6.69031 2.97071 6.3698 3.55476C6.10596 4.03499 5.97869 4.57831 6.0018 5.12576M6.0018 5.12576C5.41394 5.27697 4.86822 5.55999 4.40595 5.95337C3.94369 6.34675 3.57702 6.84018 3.33371 7.39627C3.0904 7.95236 2.97684 8.55653 3.00163 9.16301C3.02642 9.76949 3.18891 10.3624 3.4768 10.8968M6.0018 5.12576C6.02218 5.60966 6.15942 6.08143 6.4018 6.50076M17.9978 5.12576C18.5856 5.27697 19.1314 5.55999 19.5936 5.95337C20.0559 6.34675 20.4226 6.84018 20.6659 7.39627C20.9092 7.95236 21.0227 8.55653 20.998 9.16301C20.9732 9.76949 20.8107 10.3624 20.5228 10.8968M19.5048 10.2948C20.364 10.6437 21.0752 11.2804 21.5169 12.0958C21.9585 12.9112 22.1031 13.8548 21.9259 14.765C21.7487 15.6753 21.2608 16.4957 20.5455 17.0859C19.8303 17.6762 18.9321 17.9996 18.0048 18.0008M4.0318 17.4838C3.91141 18.4015 4.11302 19.3325 4.60225 20.1183C5.09148 20.904 5.83805 21.4957 6.71472 21.7926C7.59139 22.0895 8.5439 22.0732 9.40989 21.7465C10.2759 21.4197 11.0018 20.8028 11.4638 20.0008C11.6438 19.6898 12.3558 19.6898 12.5358 20.0008C12.9978 20.8026 13.7236 21.4194 14.5895 21.7462C15.4553 22.0729 16.4077 22.0892 17.2842 21.7925C18.1608 21.4957 18.9074 20.9042 19.3967 20.1187C19.886 19.3332 20.0879 18.4024 19.9678 17.4848M4.4998 10.2918C3.63869 10.6395 2.9254 11.276 2.48228 12.0921C2.03917 12.9083 1.89383 13.8532 2.0712 14.7647C2.24857 15.6763 2.7376 16.4978 3.45441 17.0882C4.17121 17.6786 5.07113 18.0013 5.9998 18.0008M9.2278 10.8528L8.3048 10.4698M9.2278 13.1488L8.3048 13.5318M14.9998 12.0008C14.9998 13.6576 13.6566 15.0008 11.9998 15.0008C10.3429 15.0008 8.9998 13.6576 8.9998 12.0008C8.9998 10.3439 10.3429 9.00076 11.9998 9.00076C13.6566 9.00076 14.9998 10.3439 14.9998 12.0008Z" stroke="black" stroke-width="2" stroke-linecap="round" stroke-linejoin="round"/>
</svg>
