<svg width="24" height="24" viewBox="0 0 24 24" fill="none" xmlns="http://www.w3.org/2000/svg">
<path d="M14.6219 17.8967L3.94192 14.9837M8.99992 7.99973C7.19592 10.7097 5.02992 11.4597 2.41692 11.9477C2.33024 11.9636 2.24918 12.0017 2.18173 12.0584C2.11428 12.1151 2.06277 12.1884 2.03229 12.2711C2.0018 12.3538 1.99339 12.443 2.00788 12.5299C2.02237 12.6168 2.05926 12.6984 2.11492 12.7667L9.43492 21.6497C9.5836 21.8076 9.77959 21.9129 9.99333 21.9497C10.2071 21.9865 10.427 21.9528 10.6199 21.8537C12.7349 20.4047 15.9999 16.7917 15.9999 14.9997M18.3759 2.62173C18.573 2.42462 18.807 2.26826 19.0646 2.16158C19.3221 2.05491 19.5982 2 19.8769 2C20.1557 2 20.4317 2.05491 20.6893 2.16158C20.9468 2.26826 21.1808 2.42462 21.3779 2.62173C21.575 2.81885 21.7314 3.05286 21.8381 3.3104C21.9448 3.56794 21.9997 3.84397 21.9997 4.12273C21.9997 4.4015 21.9448 4.67753 21.8381 4.93507C21.7314 5.19261 21.575 5.42662 21.3779 5.62373L17.3599 9.64273C17.2662 9.7365 17.2135 9.86365 17.2135 9.99623C17.2135 10.1288 17.2662 10.256 17.3599 10.3497L18.3039 11.2937C18.7558 11.7457 19.0097 12.3586 19.0097 12.9977C19.0097 13.6368 18.7558 14.2498 18.3039 14.7017L17.3599 15.6457C17.2662 15.7395 17.139 15.7921 17.0064 15.7921C16.8738 15.7921 16.7467 15.7395 16.6529 15.6457L8.35392 7.34773C8.26019 7.25397 8.20753 7.12682 8.20753 6.99424C8.20753 6.86165 8.26019 6.7345 8.35392 6.64073L9.29792 5.69673C9.74987 5.24485 10.3628 4.99099 11.0019 4.99099C11.641 4.99099 12.254 5.24485 12.7059 5.69673L13.6499 6.64073C13.7437 6.73447 13.8708 6.78713 14.0034 6.78713C14.136 6.78713 14.2632 6.73447 14.3569 6.64073L18.3759 2.62173Z" stroke="black" stroke-width="2" stroke-linecap="round" stroke-linejoin="round"/>
</svg>
