<svg width="19" height="19" viewBox="0 0 19 19" fill="none" xmlns="http://www.w3.org/2000/svg">
<g clip-path="url(#clip0_1002_8028)">
<path d="M17.1445 0H1.85547C0.830722 0 0 0.830722 0 1.85547V17.1445C0 18.1693 0.830722 19 1.85547 19H17.1445C18.1693 19 19 18.1693 19 17.1445V1.85547C19 0.830722 18.1693 0 17.1445 0Z" fill="#3178C6"/>
<path d="M12.6355 5.60352H6.36455C5.94424 5.60352 5.60352 5.94424 5.60352 6.36455V12.6355C5.60352 13.0558 5.94424 13.3965 6.36455 13.3965H12.6355C13.0558 13.3965 13.3965 13.0558 13.3965 12.6355V6.36455C13.3965 5.94424 13.0558 5.60352 12.6355 5.60352Z" fill="#3178C6"/>
<path fill-rule="evenodd" clip-rule="evenodd" d="M11.7614 15.1193V16.977C12.0634 17.1318 12.4206 17.2479 12.8329 17.3253C13.4515 17.4414 13.6799 17.4414 14.1368 17.4414C14.582 17.4414 15.005 17.3988 15.4058 17.3137C15.8065 17.2285 16.1579 17.0882 16.4599 16.8928C16.7619 16.6973 17.001 16.4419 17.1772 16.1265C17.4414 15.6533 17.4414 15.4211 17.4414 14.9567C17.4414 14.62 17.3911 14.3249 17.2904 14.0714C17.1394 13.6911 17.0446 13.5925 16.8548 13.3951C16.6651 13.1977 16.4376 13.0206 16.1724 12.8639C15.7746 12.6287 15.6081 12.5591 15.2751 12.4198C15.0312 12.3191 14.8124 12.2214 14.6188 12.1266C14.4252 12.0317 14.2607 11.935 14.1252 11.8363C13.9896 11.7376 13.8851 11.6331 13.8116 11.5228C13.738 11.4125 13.7012 11.2877 13.7012 11.1484C13.7012 11.0207 13.7341 10.9055 13.7999 10.8029C13.8987 10.6491 13.9587 10.6124 14.0787 10.5388C14.1987 10.4653 14.3459 10.4082 14.5201 10.3675C14.6943 10.3269 14.8879 10.3066 15.1009 10.3066C15.2557 10.3066 15.4193 10.3182 15.5916 10.3414C15.7639 10.3647 15.9372 10.4005 16.1114 10.4488C16.2852 10.497 16.455 10.5582 16.6196 10.6317C16.7842 10.7052 16.9361 10.7904 17.0755 10.8871V9.15132C16.7929 9.04296 16.4841 8.96266 16.1492 8.91041C15.6468 8.83203 15.43 8.83203 14.9963 8.83203C14.5549 8.83203 14.1368 8.87944 13.7419 8.97427C13.1495 9.11651 12.9995 9.21712 12.6993 9.41836C12.3993 9.61964 12.1621 9.87605 11.9879 10.1876C11.8137 10.4991 11.7266 10.8716 11.7266 11.3051C11.7266 11.8586 11.8863 12.3307 12.2057 12.7217C12.5251 13.1125 13.0101 13.4434 13.6606 13.7144C13.9161 13.8189 14.1542 13.9214 14.3749 14.022C14.7059 14.173 14.7863 14.2272 14.947 14.3355C15.1076 14.4439 15.2344 14.5619 15.3274 14.6897C15.4203 14.8174 15.4668 14.9625 15.4668 15.1251C15.4668 15.2451 15.4377 15.3563 15.3796 15.4589C15.2925 15.6127 15.2335 15.6504 15.1154 15.7259C14.9973 15.8014 14.8502 15.8604 14.674 15.903C14.4978 15.9455 14.2917 15.9668 14.0555 15.9668C13.6528 15.9668 13.254 15.8962 12.8591 15.7549C12.4641 15.6137 12.0983 15.4018 11.7614 15.1193ZM8.63832 10.5421H11.0215V9.01758H4.37891V10.5421H6.75042V17.3301H8.63832V10.5421Z" fill="white"/>
</g>
<defs>
<clipPath id="clip0_1002_8028">
<rect width="19" height="19" fill="white"/>
</clipPath>
</defs>
</svg>
